<svg width="22" height="24" viewBox="0 0 22 24" fill="none" xmlns="http://www.w3.org/2000/svg">
<path d="M18.5836 0.625H5.16692C2.34592 0.625 0.791916 2.179 0.791916 5V19C0.791916 21.6168 2.55008 23.375 5.16692 23.375H18.5836C20.0303 23.375 21.2086 22.1978 21.2086 20.75V13.75V3.25C21.2086 1.80217 20.0303 0.625 18.5836 0.625ZM7.50025 5.29167H14.5002C14.9833 5.29167 15.3752 5.68367 15.3752 6.16667C15.3752 6.64967 14.9833 7.04167 14.5002 7.04167H7.50025C7.01725 7.04167 6.62525 6.64967 6.62525 6.16667C6.62525 5.68367 7.01725 5.29167 7.50025 5.29167ZM7.50025 8.79167H12.1669C12.6499 8.79167 13.0419 9.18367 13.0419 9.66667C13.0419 10.1497 12.6499 10.5417 12.1669 10.5417H7.50025C7.01725 10.5417 6.62525 10.1497 6.62525 9.66667C6.62525 9.18367 7.01725 8.79167 7.50025 8.79167ZM19.4586 20.75C19.4586 21.233 19.0654 21.625 18.5836 21.625H5.16692C2.79858 21.625 2.54192 19.7887 2.54192 19C2.54192 18.2113 2.79858 16.375 5.16692 16.375H18.5836C18.7528 16.375 18.9162 16.3552 19.0761 16.3249C19.1274 16.3155 19.1763 16.298 19.2264 16.2851C19.3034 16.2653 19.3839 16.2513 19.4586 16.2245V20.75Z" fill="white"/>
</svg>
