<svg width="19" height="24" viewBox="0 0 19 24" fill="none" xmlns="http://www.w3.org/2000/svg">
<path d="M18.8405 3.33161V19L18.8323 18.9836V19L16.0919 17.432C15.9823 17.3702 15.9156 17.2535 15.9156 17.1287C15.9156 17.1287 15.9156 7.92244 15.9156 7.88277C15.8678 4.98127 14.1119 3.25117 11.1789 3.25H5.09717C4.89417 3.25 4.83357 3.07273 4.85107 2.87089C4.99691 1.18623 5.99319 0.333336 7.83069 0.333336H15.8339H15.8421C17.8371 0.333336 18.8405 1.33661 18.8405 3.33161ZM14.1773 7.99955V23.6667L7.17728 19.6674L0.177284 23.6667V7.99955C0.177284 5.99989 1.17717 5 3.17684 5H11.1766C13.1774 5 14.1773 5.99989 14.1773 7.99955ZM4.96073 10.1334C4.96073 11.356 5.95578 12.3501 7.17728 12.3501C8.39878 12.3501 9.39384 11.356 9.39384 10.1334C9.39384 8.9107 8.39878 7.91667 7.17728 7.91667C5.95578 7.91667 4.96073 8.9107 4.96073 10.1334ZM10.7006 16.3703C10.7006 15.01 9.70666 13.6334 7.80733 13.6334H6.54952C4.64902 13.6334 3.65621 15.01 3.65621 16.3703V16.6667C3.65621 16.9887 3.91754 17.25 4.23954 17.25H10.1184C10.4404 17.25 10.7018 16.9887 10.7018 16.6667V16.3703H10.7006Z" fill="white"/>
</svg>
