<svg width="24" height="23" viewBox="0 0 24 23" fill="none" xmlns="http://www.w3.org/2000/svg">
<path d="M22.4998 22.375H1.49976C1.01676 22.375 0.624756 21.983 0.624756 21.5C0.624756 21.017 1.01676 20.625 1.49976 20.625H22.4998C22.9828 20.625 23.3748 21.017 23.3748 21.5C23.3748 21.983 22.9828 22.375 22.4998 22.375ZM14.3331 16.25V2.25C14.3331 1.08333 13.7498 0.5 12.5831 0.5H11.4164C10.2498 0.5 9.66642 1.08333 9.66642 2.25V16.25C9.66642 17.4167 10.2498 18 11.4164 18H12.5831C13.7498 18 14.3331 17.4167 14.3331 16.25ZM22.4998 16.25V6.91667C22.4998 5.75 21.9164 5.16667 20.7498 5.16667H19.5831C18.4164 5.16667 17.8331 5.75 17.8331 6.91667V16.25C17.8331 17.4167 18.4164 18 19.5831 18H20.7498C21.9164 18 22.4998 17.4167 22.4998 16.25ZM6.16642 16.25V10.4167C6.16642 9.25 5.58309 8.66667 4.41642 8.66667H3.24976C2.08309 8.66667 1.49976 9.25 1.49976 10.4167V16.25C1.49976 17.4167 2.08309 18 3.24976 18H4.41642C5.58309 18 6.16642 17.4167 6.16642 16.25Z" fill="white"/>
</svg>
