<svg width="18" height="16" viewBox="0 0 18 16" fill="none" xmlns="http://www.w3.org/2000/svg">
<path d="M16.9 15.42C16.951 15.723 16.717 16 16.41 16H1.59005C1.28205 16 1.048 15.723 1.1 15.42L1.50802 13C1.53202 12.856 1.65704 12.75 1.80404 12.75H16.197C16.343 12.75 16.468 12.856 16.493 13L16.9 15.42ZM16.49 3.53L13.99 5.04001C13.538 5.31301 12.951 5.181 12.66 4.74L9.82101 0.441016C9.43301 -0.146984 8.57002 -0.147992 8.18002 0.440008L5.34005 4.73002C5.05005 5.18002 4.46003 5.31001 4.00003 5.03L1.51003 3.53C0.770035 3.08 -0.149955 3.72001 0.0200447 4.57001L1.46701 11.016C1.49801 11.153 1.61903 11.25 1.76003 11.25H16.24C16.38 11.25 16.502 11.153 16.533 11.016L17.98 4.57001C18.15 3.72001 17.23 3.08 16.49 3.53Z" fill="#FF7355"/>
</svg>
