<svg width="16" height="20" viewBox="0 0 16 20" fill="none" xmlns="http://www.w3.org/2000/svg">
<path d="M13.356 6.649C13.213 6.504 12.996 6.46 12.81 6.537C12.622 6.614 12.499 6.79701 12.499 7.00001C12.499 7.76201 12.338 8.45802 12.022 9.07002C11.529 10.025 10.726 10.64 10.055 11.015C12.915 4.44702 7.33701 0.623994 7.27701 0.583994C7.12301 0.480994 6.92501 0.472031 6.76401 0.559031C6.60101 0.646031 6.5 0.81601 6.5 1.00001C6.5 3.19701 5.037 4.49403 3.621 5.74903C3.275 6.05503 2.942 6.35098 2.646 6.64698C1.142 8.15098 0.5 9.75199 0.5 12.001C0.5 16.136 3.864 19.501 8 19.501C12.136 19.501 15.5 16.136 15.5 12.001C15.5 9.98399 14.719 8.033 13.356 6.649Z" fill="#FF2045"/>
</svg>
