<svg width="18" height="18" viewBox="0 0 18 18" fill="none" xmlns="http://www.w3.org/2000/svg">
<path fill-rule="evenodd" clip-rule="evenodd" d="M15 18H11.8C11.634 18 11.5 17.866 11.5 17.7V13.5C11.5 12.119 10.381 11 9 11C7.619 11 6.5 12.119 6.5 13.5V17.7C6.5 17.866 6.36595 18 6.19995 18H3C1 18 0 17 0 15V8.65102C0 6.65302 0.523054 6.34608 1.43005 5.58608L7.39404 0.584982C8.32304 -0.194018 9.67806 -0.194018 10.6071 0.584982L16.571 5.58608C17.477 6.34608 18.001 6.65302 18.001 8.65102V15C18 17 17 18 15 18Z" fill="#FF7355"/>
</svg>
