<svg width="18" height="19" viewBox="0 0 18 19" fill="none" xmlns="http://www.w3.org/2000/svg">
<path d="M18 15.5001V19.0001H13.5V14.0001H16.5C17.5 14.0001 18 14.5001 18 15.5001ZM1.5 12.0001C0.5 12.0001 0 12.5001 0 13.5001V19.0001H4.5V12.0001H1.5ZM12 10.5001C12 9.50005 11.5 9.00005 10.5 9.00005H7.5C6.5 9.00005 6 9.50005 6 10.5001V19.0001H12V10.5001ZM8.62601 0.760062L7.871 2.28301C7.814 2.39801 7.704 2.47702 7.578 2.49602L5.83501 2.7481C5.51501 2.7941 5.388 3.18606 5.619 3.41106L6.879 4.63409C6.971 4.72309 7.013 4.85206 6.991 4.97906L6.703 6.65105C6.644 6.99105 7.002 7.25002 7.308 7.09002L8.819 6.299C8.932 6.24 9.068 6.24 9.181 6.299L10.693 7.09099C10.999 7.25099 11.356 6.99203 11.297 6.65203L11.009 4.97808C10.987 4.85208 11.029 4.72311 11.121 4.63311L12.381 3.41009C12.613 3.18509 12.485 2.793 12.165 2.747L10.422 2.49505C10.295 2.47705 10.185 2.39703 10.129 2.28203L9.37399 0.759085C9.22099 0.451085 8.77901 0.451062 8.62601 0.760062Z" fill="#87898F"/>
</svg>
