<svg width="20" height="20" viewBox="0 0 20 20" fill="none" xmlns="http://www.w3.org/2000/svg">
<path d="M10 16.75H8C5.932 16.75 4.25 15.068 4.25 13C4.25 10.932 5.932 9.25 8 9.25H12C13.241 9.25 14.25 8.241 14.25 7C14.25 5.759 13.241 4.75 12 4.75H10C9.586 4.75 9.25 4.414 9.25 4C9.25 3.586 9.586 3.25 10 3.25H12C14.068 3.25 15.75 4.932 15.75 7C15.75 9.068 14.068 10.75 12 10.75H8C6.759 10.75 5.75 11.759 5.75 13C5.75 14.241 6.759 15.25 8 15.25H10C10.414 15.25 10.75 15.586 10.75 16C10.75 16.414 10.414 16.75 10 16.75ZM7.5 4C7.5 6.037 5.67998 7.23891 4.47498 8.03491L4.27698 8.16602C4.19298 8.22202 4.096 8.25 4 8.25C3.904 8.25 3.80702 8.22202 3.72302 8.16602L3.52502 8.03491C2.32002 7.23891 0.5 6.037 0.5 4C0.5 2.07 2.07 0.5 4 0.5C5.93 0.5 7.5 2.07 7.5 4ZM5.02002 4C5.02002 3.448 4.57202 3 4.02002 3H4.01001C3.45801 3 3.01501 3.448 3.01501 4C3.01501 4.552 3.46802 5 4.02002 5C4.57202 5 5.02002 4.552 5.02002 4ZM19.5 15.25C19.5 17.287 17.68 18.4889 16.475 19.2849L16.277 19.416C16.193 19.472 16.096 19.5 16 19.5C15.904 19.5 15.807 19.472 15.723 19.416L15.525 19.2849C14.32 18.4889 12.5 17.287 12.5 15.25C12.5 13.32 14.07 11.75 16 11.75C17.93 11.75 19.5 13.32 19.5 15.25ZM17.02 15.25C17.02 14.698 16.572 14.25 16.02 14.25H16.01C15.458 14.25 15.015 14.698 15.015 15.25C15.015 15.802 15.468 16.25 16.02 16.25C16.572 16.25 17.02 15.802 17.02 15.25Z" fill="#87898F"/>
</svg>
